<svg
   xmlns:dc="http://purl.org/dc/elements/1.1/"
   xmlns:cc="http://creativecommons.org/ns#"
   xmlns:rdf="http://www.w3.org/1999/02/22-rdf-syntax-ns#"
   xmlns:svg="http://www.w3.org/2000/svg"
   xmlns="http://www.w3.org/2000/svg"
   xmlns:sodipodi="http://sodipodi.sourceforge.net/DTD/sodipodi-0.dtd"
   xmlns:inkscape="http://www.inkscape.org/namespaces/inkscape"
   width="1000"
   height="111.61745"
   id="svg4976"
   version="1.1"
   inkscape:version="0.48.2 r9819"
   sodipodi:docname="A.svg">
  <defs
     id="defs4978">
    <clipPath
       clipPathUnits="userSpaceOnUse"
       id="clipPath5397">
      <path
         inkscape:connector-curvature="0"
         d="m 262.558,320.52 93.486,0 0,48.358 -93.486,0 0,-48.358 z"
         id="path5399" />
    </clipPath>
  </defs>
  <sodipodi:namedview
     id="base"
     pagecolor="#ffffff"
     bordercolor="#666666"
     borderopacity="1.0"
     inkscape:pageopacity="0.0"
     inkscape:pageshadow="2"
     inkscape:zoom="0.57148438"
     inkscape:cx="599.21326"
     inkscape:cy="-272.08513"
     inkscape:document-units="px"
     inkscape:current-layer="layer1"
     showgrid="false"
     fit-margin-left="0.5"
     fit-margin-bottom="0.5"
     fit-margin-top="0.5"
     fit-margin-right="0.5"
     inkscape:window-width="1070"
     inkscape:window-height="1035"
     inkscape:window-x="837"
     inkscape:window-y="-21"
     inkscape:window-maximized="0" />
  <metadata
     id="metadata4981">
    <rdf:RDF>
      <cc:Work
         rdf:about="">
        <dc:format>image/svg+xml</dc:format>
        <dc:type
           rdf:resource="http://purl.org/dc/dcmitype/StillImage" />
        <dc:title></dc:title>
      </cc:Work>
    </rdf:RDF>
  </metadata>
  <g
     inkscape:label="Layer 1"
     inkscape:groupmode="layer"
     id="layer1"
     transform="translate(452.72737,15.193813)">
    <g
       id="g20733"
       transform="matrix(8.4179908,0,0,-8.4179908,-397.83873,60.495681)">
      <path
         d="M 0,0 0,6.223 C -0.14,6.201 -0.32,6.195 -0.487,6.195 c -0.161,0 -0.486,0.059 -0.646,0.092 l 0,-3.709 c 0,-0.574 -0.216,-0.779 -0.803,-1.144 L -3.409,0.512 C -2.76,0.067 -2.11,-0.174 -1.183,-0.17 -0.844,-0.17 -0.266,-0.089 0,0 m 2.235,1.315 c -1.017,-2.106 -1.893,-3.289 -4.341,-3.289 -2.43,0 -4.287,1.679 -4.287,4.133 0,2.118 1.13,3.418 2.446,4.274 L -3.83,6.342 C -4.683,5.354 -4.856,4.17 -4.856,3.5 c 0,-1.263 0.481,-2.25 1.29,-2.881 l 0.355,0.197 c 0.293,0.162 0.368,0.315 0.368,0.803 l 0,3.565 -0.58,-0.316 -0.066,0.172 c 0,0 1.728,1.092 2.147,1.302 l 0,0.025 c -1.549,0.441 -1.826,0.948 -2.791,0.948 -0.944,0 -1.583,-0.657 -2.156,-2.038 l -0.172,0.05 c 0.08,1.553 0.75,3.605 3.553,3.605 0.57,0 1.159,-0.308 1.882,-0.604 0.671,-0.277 1.303,-0.539 1.63,-0.539 0.901,0 1.235,0.414 1.487,0.973 L 2.195,8.694 C 2.069,7.767 1.285,6.486 0.197,6.26 l 0,-6.193 c 0.711,0.222 1.376,0.597 1.894,1.38 L 2.235,1.315 z"
         style="fill:#BDBEC2;fill-opacity:1;fill-rule:nonzero;stroke:none"
         id="path20735"
         inkscape:connector-curvature="0" />
    </g>
    <g
       id="g20737"
       transform="matrix(8.4179908,0,0,-8.4179908,-333.51602,24.488561)">
      <path
         d="m 0,0 c -0.151,-0.081 -0.262,-0.264 -0.262,-0.634 l 0,-3.724 c 0,-1.84 -1.226,-3.419 -2.645,-4.128 l -0.104,0.117 c 0.644,0.612 1.013,1.659 1.013,3.001 l 0,4.854 -0.937,0.644 -0.275,-0.224 0,-4.34 0.686,-0.408 -1.252,-1.224 -1.498,0.987 0,0.014 c 0.19,0.149 0.341,0.284 0.341,0.736 l 0,7.771 2.026,1.133 0.093,-0.143 C -3.091,4.239 -3.21,4.104 -3.21,3.55 l 0,-3.448 1.331,1.252 L 0,0.037 0,0 z"
         style="fill:#BDBEC2;fill-opacity:1;fill-rule:nonzero;stroke:none"
         id="path20739"
         inkscape:connector-curvature="0" />
    </g>
    <g
       id="g20741"
       transform="matrix(8.4179908,0,0,-8.4179908,-302.83665,40.001311)">
      <path
         d="M 0,0 -1.132,2.131 -1.17,2.117 -1.17,-0.658 0,0 z m 1.618,0.737 -2.788,-1.592 0,-1.328 1.315,-0.855 0.697,0.641 0.145,-0.143 -1.895,-1.67 -2.342,1.552 0,0.026 c 0.171,0.1 0.342,0.35 0.342,0.619 l 0,3.342 3.198,1.827 1.328,-2.419 z"
         style="fill:#BDBEC2;fill-opacity:1;fill-rule:nonzero;stroke:none"
         id="path20743"
         inkscape:connector-curvature="0" />
    </g>
    <g
       id="g20745"
       transform="matrix(8.4179908,0,0,-8.4179908,82.607152,62.131301)">
      <path
         d="m 0,0 -1.616,-1.618 -2.119,1.3 0,0.028 c 0.218,0.178 0.342,0.32 0.342,0.67 l 0,3.946 -0.92,0 0.406,0.882 0.514,0 0,1.407 2.039,1.066 0.091,-0.131 C -1.472,7.368 -1.659,7.249 -1.659,6.787 l 0,-1.513 1.398,0 -0.45,-0.948 -0.948,0 0,-4.129 L -0.606,-0.33 -0.13,0.131 0,0 z"
         style="fill:#BDBEC2;fill-opacity:1;fill-rule:nonzero;stroke:none"
         id="path20747"
         inkscape:connector-curvature="0" />
    </g>
    <g
       id="g20749"
       transform="matrix(8.4179908,0,0,-8.4179908,48.286162,62.131301)">
      <path
         d="m 0,0 -1.63,-1.618 -2.117,1.3 0,0.028 c 0.216,0.178 0.341,0.32 0.341,0.67 l 0,3.946 -0.921,0 0.406,0.882 0.515,0 0,1.407 2.052,1.066 0.093,-0.131 C -1.473,7.368 -1.657,7.249 -1.657,6.787 l 0,-1.513 1.395,0 -0.448,-0.948 -0.947,0 0,-4.129 1.054,-0.527 0.472,0.461 L 0,0 z"
         style="fill:#BDBEC2;fill-opacity:1;fill-rule:nonzero;stroke:none"
         id="path20751"
         inkscape:connector-curvature="0" />
    </g>
    <g
       id="g20753"
       transform="matrix(8.4179908,0,0,-8.4179908,-31.105588,62.246681)">
      <path
         d="m 0,0 -1.67,-1.553 -1.725,1.198 0,0.026 c 0.238,0.185 0.342,0.369 0.342,0.708 l 0,7.552 2.025,1.053 0.08,-0.131 C -1.217,8.617 -1.33,8.525 -1.33,7.891 l 0,-7.68 0.737,-0.46 0.462,0.353 L 0,0 z"
         style="fill:#BDBEC2;fill-opacity:1;fill-rule:nonzero;stroke:none"
         id="path20755"
         inkscape:connector-curvature="0" />
    </g>
    <g
       id="g20757"
       transform="matrix(8.4179908,0,0,-8.4179908,-59.241038,16.834931)">
      <path
         d="m 0,0 c -0.039,-0.942 -0.448,-1.525 -1.382,-1.525 -0.543,0 -0.856,0.366 -1.09,0.654 l -0.224,-0.234 0,-3.922 0.922,-0.656 0.564,0.552 0.132,-0.133 -1.708,-1.694 -1.988,1.367 0,0.026 c 0.25,0.19 0.327,0.361 0.327,0.791 l 0,3.482 -0.433,0.37 -0.435,-0.422 -0.157,0.146 1.63,1.606 1.119,-0.883 0,-0.447 0.027,0.014 1.197,1.303 0.026,0 c 0.279,-0.289 0.702,-0.437 1.091,-0.437 0.125,0 0.259,0.026 0.369,0.067 L 0,0 z"
         style="fill:#BDBEC2;fill-opacity:1;fill-rule:nonzero;stroke:none"
         id="path20759"
         inkscape:connector-curvature="0" />
    </g>
    <g
       id="g20761"
       transform="matrix(8.4179908,0,0,-8.4179908,-152.58309,24.480181)">
      <path
         d="m 0,0 c -0.152,-0.079 -0.264,-0.265 -0.264,-0.632 l 0,-3.724 c 0,-1.841 -1.224,-3.419 -2.643,-4.127 l -0.107,0.116 c 0.644,0.611 1.012,1.657 1.012,3.001 l 0,4.851 -0.919,0.646 -0.277,-0.223 0,-4.342 0.671,-0.407 -1.249,-1.222 -1.486,0.984 0,0.013 c 0.191,0.152 0.343,0.284 0.343,0.736 l 0,7.775 2.026,1.134 0.09,-0.145 C -3.081,4.239 -3.198,4.103 -3.198,3.552 l 0,-3.446 1.316,1.248 L 0,0.037 0,0 z"
         style="fill:#BDBEC2;fill-opacity:1;fill-rule:nonzero;stroke:none"
         id="path20763"
         inkscape:connector-curvature="0" />
    </g>
    <g
       id="g20765"
       transform="matrix(8.4179908,0,0,-8.4179908,107.95961,39.984431)">
      <path
         d="m 0,0 -1.132,2.13 -0.035,-0.012 0,-2.777 L 0,0 z m 1.62,0.736 -2.787,-1.59 0,-1.33 1.313,-0.856 0.703,0.644 0.138,-0.144 -1.892,-1.668 -2.343,1.55 0,0.027 c 0.173,0.099 0.343,0.348 0.343,0.62 l 0,3.338 3.194,1.831 1.331,-2.422 z"
         style="fill:#BDBEC2;fill-opacity:1;fill-rule:nonzero;stroke:none"
         id="path20767"
         inkscape:connector-curvature="0" />
    </g>
    <g
       id="g20769"
       transform="matrix(8.4179908,0,0,-8.4179908,-6.9653176,66.672811)">
      <path
         d="m 0,0 0,4.67 -1.13,0.711 -0.028,0 0,-4.673 1.119,-0.721 L 0,0 z M 2.013,5.104 C 1.819,4.969 1.736,4.773 1.736,4.38 l 0,-3.724 -2.921,-1.707 -2.051,1.368 0,0.025 c 0.208,0.134 0.355,0.366 0.355,0.644 l 0,3.566 3.001,1.787 1.893,-1.209 0,-0.026 z"
         style="fill:#BDBEC2;fill-opacity:1;fill-rule:nonzero;stroke:none"
         id="path20771"
         inkscape:connector-curvature="0" />
    </g>
    <g
       id="g20773"
       transform="matrix(8.4179908,0,0,-8.4179908,-125.89385,65.235061)">
      <path
         d="m 0,0 0,3.104 c -0.765,0 -1.055,-0.775 -1.055,-1.683 0,-0.776 0.263,-1.361 0.778,-1.605 L 0,0 z M 0,3.302 0,4.419 -0.699,4.892 C -0.843,4.735 -1.132,4.577 -1.407,4.577 c -0.383,0 -0.607,0.132 -0.711,0.224 l -0.026,0 C -2.026,4.276 -1.402,3.571 -0.868,3.104 -0.578,3.211 -0.247,3.275 0,3.302 M 2.933,0.381 1.355,-1.198 0,-0.225 -1.407,-1.209 c -0.778,0.288 -1.409,0.933 -1.409,2.077 0,1.079 0.567,1.822 1.776,2.184 -0.697,0.579 -1.485,1.459 -1.485,2.315 0,0.447 0.315,0.777 0.722,0.777 0.369,0 0.617,-0.199 0.617,-0.62 0,-0.314 -0.275,-0.591 -0.657,-0.616 l 0,-0.016 c 0.066,-0.038 0.197,-0.116 0.436,-0.116 0.539,0 1.13,0.84 1.511,1.42 l 1.921,-1.248 0,-0.029 C 1.767,4.78 1.721,4.527 1.721,3.986 l 0,-3.434 L 2.38,0.093 2.799,0.525 2.933,0.381 z"
         style="fill:#BDBEC2;fill-opacity:1;fill-rule:nonzero;stroke:none"
         id="path20775"
         inkscape:connector-curvature="0" />
    </g>
    <g
       id="g20777"
       transform="matrix(8.4179908,0,0,-8.4179908,-220.92118,64.671931)">
      <path
         d="M 0,0 0,7.116 C -0.367,7.3 -0.724,7.636 -0.921,7.983 l -0.013,-0.014 0,-4.484 c 0,-0.75 -0.009,-1.029 -0.669,-1.447 L -3.038,1.13 C -2.318,0.422 -1.395,0.071 0,0 M 2.908,0.881 C 1.711,-0.924 0.49,-1.527 -1.591,-1.527 c -2.631,0 -4.407,2.286 -4.407,5.065 0,2.952 2.144,4.681 3.551,5.039 l 0.08,-0.134 C -3.439,7.8 -4.156,6.464 -4.156,4.157 -4.156,2.97 -3.76,1.974 -3.194,1.34 l 0.209,0.133 c 0.223,0.141 0.381,0.294 0.381,0.763 l 0,5.038 L -3.117,6.986 -3.223,7.154 0.264,9.26 C 0.809,8.457 1.605,8.247 2.462,8.365 L 2.487,8.327 C 2.328,7.472 1.691,6.917 0.869,6.917 0.613,6.917 0.303,6.986 0.146,7.049 L 0.146,0 C 1.521,0.126 2.16,0.475 2.815,0.985 L 2.908,0.881 z"
         style="fill:#BDBEC2;fill-opacity:1;fill-rule:nonzero;stroke:none"
         id="path20779"
         inkscape:connector-curvature="0" />
    </g>
    <g
       id="g20781"
       transform="matrix(8.4179908,0,0,-8.4179908,546.77266,16.834931)">
      <path
         d="m 0,0 c -0.039,-0.942 -0.447,-1.525 -1.383,-1.525 -0.543,0 -0.851,0.366 -1.09,0.654 l -0.223,-0.234 0,-3.922 0.923,-0.656 0.565,0.552 0.133,-0.133 -1.71,-1.694 -1.992,1.367 0,0.026 c 0.254,0.19 0.334,0.361 0.334,0.791 l 0,3.482 -0.434,0.37 -0.436,-0.422 -0.158,0.146 1.629,1.606 1.119,-0.883 0,-0.447 0.027,0.014 1.198,1.303 0.025,0 c 0.28,-0.289 0.705,-0.437 1.092,-0.437 0.126,0 0.26,0.026 0.372,0.067 L 0,0 z"
         style="fill:#BDBEC2;fill-opacity:1;fill-rule:nonzero;stroke:none"
         id="path20783"
         inkscape:connector-curvature="0" />
    </g>
    <g
       id="g20785"
       transform="matrix(8.4179908,0,0,-8.4179908,458.95866,22.055801)">
      <path
         d="m 0,0 c -0.245,-0.182 -0.394,-0.329 -0.394,-0.763 l 0,-3.855 -2.909,-1.709 -2.118,1.395 0,0.026 c 0.271,0.172 0.358,0.381 0.358,0.736 l 0,2.855 c 0,1.111 -0.71,1.138 -0.71,1.96 0,0.986 1.183,1.341 1.998,1.341 L -3.682,1.79 c -0.303,0.027 -0.66,-0.152 -0.66,-0.538 0,-0.719 1.015,-0.665 1.015,-2.001 l 0,-3.749 1.132,-0.829 0.05,0.027 0,4.654 -0.693,0.476 1.234,1.209 L 0,0.027 0,0 z"
         style="fill:#BDBEC2;fill-opacity:1;fill-rule:nonzero;stroke:none"
         id="path20787"
         inkscape:connector-curvature="0" />
    </g>
    <g
       id="g20789"
       transform="matrix(8.4179908,0,0,-8.4179908,408.36916,16.834931)">
      <path
         d="m 0,0 c -0.041,-0.942 -0.451,-1.525 -1.381,-1.525 -0.549,0 -0.855,0.366 -1.095,0.654 l -0.237,-0.234 0,-3.922 0.924,-0.656 0.566,0.552 0.129,-0.133 -1.709,-1.694 -1.971,1.367 0,0.026 c 0.249,0.19 0.329,0.361 0.329,0.791 l 0,3.482 -0.438,0.37 -0.431,-0.422 -0.173,0.146 1.643,1.606 1.104,-0.883 0,-0.447 0.027,0.014 1.2,1.303 0.025,0 c 0.277,-0.289 0.717,-0.437 1.106,-0.437 0.124,0 0.247,0.026 0.356,0.067 L 0,0 z"
         style="fill:#BDBEC2;fill-opacity:1;fill-rule:nonzero;stroke:none"
         id="path20791"
         inkscape:connector-curvature="0" />
    </g>
    <g
       id="g20793"
       transform="matrix(8.4179908,0,0,-8.4179908,487.75576,39.984431)">
      <path
         d="m 0,0 -1.13,2.13 -0.041,-0.012 0,-2.777 L 0,0 z m 1.616,0.736 -2.787,-1.59 0,-1.33 1.317,-0.856 0.697,0.644 0.144,-0.144 -1.893,-1.668 -2.345,1.55 0,0.027 c 0.172,0.099 0.347,0.348 0.347,0.62 l 0,3.338 3.196,1.831 1.324,-2.422 z"
         style="fill:#BDBEC2;fill-opacity:1;fill-rule:nonzero;stroke:none"
         id="path20795"
         inkscape:connector-curvature="0" />
    </g>
    <g
       id="g20797"
       transform="matrix(8.4179908,0,0,-8.4179908,349.33626,39.984431)">
      <path
         d="m 0,0 -1.144,2.13 -0.041,-0.012 0,-2.777 L 0,0 z m 1.606,0.736 -2.791,-1.59 0,-1.33 1.318,-0.856 0.71,0.644 0.145,-0.144 -1.894,-1.668 -2.357,1.55 0,0.027 c 0.17,0.099 0.343,0.348 0.343,0.62 l 0,3.338 3.21,1.831 1.316,-2.422 z"
         style="fill:#BDBEC2;fill-opacity:1;fill-rule:nonzero;stroke:none"
         id="path20799"
         inkscape:connector-curvature="0" />
    </g>
    <g
       id="g20801"
       transform="matrix(8.4179908,0,0,-8.4179908,302.93036,64.811681)">
      <path
         d="M 0,0 0,1.66 -0.787,2.226 C -1.301,1.503 -2.392,-0.157 -2.392,-0.157 -2.035,0.056 -1.566,0.227 -1.159,0.227 -0.867,0.227 -0.275,0.134 0,0 M 0.459,4.433 0.447,4.449 C 0.29,4.355 0.066,4.331 -0.158,4.331 c -0.471,0 -0.781,0.263 -1.104,0.566 l 0,-1.593 0.658,-0.446 c 0.423,0.593 0.66,0.998 1.063,1.575 M 1.762,0.397 -0.946,-1.259 c -0.437,0.301 -0.684,0.38 -1.236,0.38 -0.316,0 -0.709,-0.104 -1.013,-0.369 l -0.131,0.081 c 0.525,0.75 1.842,2.735 1.842,2.735 l -1.526,0.947 0,1.854 2.904,1.725 C 0.101,5.83 0.357,5.566 0.789,5.566 c 0.464,0 0.659,0.198 0.659,0.474 0,0.134 -0.011,0.184 -0.055,0.264 l 0.293,0.13 C 1.709,6.355 1.738,6.264 1.738,6.159 1.738,6.002 1.709,5.827 1.538,5.581 L 0.115,3.528 1.762,2.41 l 0,-2.013 z"
         style="fill:#BDBEC2;fill-opacity:1;fill-rule:nonzero;stroke:none"
         id="path20803"
         inkscape:connector-curvature="0" />
    </g>
    <g
       id="g20805"
       transform="matrix(8.4179908,0,0,-8.4179908,256.5321,66.895051)">
      <path
         d="m 0,0 0,4.524 -1,0.633 -0.211,-0.276 0,-4.012 1.185,-0.882 L 0,0 z M 2.029,5.117 C 1.838,4.993 1.733,4.8 1.733,4.354 l 0,-3.657 -2.889,-1.697 -2.131,1.46 0,0.027 c 0.289,0.222 0.34,0.422 0.34,0.842 l 0,7.154 2.042,1.134 0.093,-0.12 C -1.066,9.3 -1.211,9.129 -1.211,8.591 l 0,-3.486 1.316,1.276 1.924,-1.236 0,-0.028 z"
         style="fill:#BDBEC2;fill-opacity:1;fill-rule:nonzero;stroke:none"
         id="path20807"
         inkscape:connector-curvature="0" />
    </g>
    <g
       id="g20809"
       transform="matrix(8.4179908,0,0,-8.4179908,196.4066,65.012811)">
      <path
         d="M 0,0 0,7.655 C -0.313,7.86 -0.621,8.008 -0.893,8.104 l -0.03,-0.039 0,-4.632 c 0,-0.926 -0.136,-0.987 -0.852,-1.445 L -3.09,1.143 c 0.716,-0.749 1.559,-1.169 2.656,-1.169 0.155,0 0.297,0.007 0.434,0.026 m 2.105,3.249 c -0.23,0.07 -0.611,0.132 -0.959,0.132 -0.354,0 -0.739,-0.071 -1,-0.144 l 0,-3.213 C 1.43,0.28 2.006,1.434 2.105,3.249 M 2.12,3.854 C 2.12,3.99 2.118,4.12 2.105,4.25 1.855,4.179 1.475,4.131 1.146,4.131 c -0.354,0 -0.739,0.058 -1,0.132 l 0,-0.882 c 0.231,0.071 0.646,0.13 1,0.13 0.34,0 0.715,-0.038 0.959,-0.116 C 2.111,3.544 2.12,3.696 2.12,3.854 M 2.094,4.393 C 1.912,5.878 1.03,6.929 0.146,7.552 l 0,-3.144 c 0.284,-0.084 0.646,-0.134 1,-0.134 0.304,0 0.694,0.043 0.948,0.119 m 1.433,0.275 c 0,-3.34 -2.157,-6.116 -4.867,-6.116 -2.885,0 -4.655,2.355 -4.655,5.013 0,3.064 2.103,4.749 3.443,5.247 l 0.146,-0.09 C -3.5,7.84 -4.143,6.341 -4.143,3.934 c 0,-1.052 0.321,-1.923 0.856,-2.579 L -3.001,1.5 c 0.351,0.172 0.411,0.462 0.411,0.814 l 0,4.857 L -3.09,6.88 -3.185,7.064 0.59,9.3 C 1.881,8.906 3.527,7.459 3.527,4.668"
         style="fill:#BDBEC2;fill-opacity:1;fill-rule:nonzero;stroke:none"
         id="path20811"
         inkscape:connector-curvature="0" />
    </g>
  </g>
</svg>
