<svg xmlns:dc="http://purl.org/dc/elements/1.1/" xmlns:cc="http://creativecommons.org/ns#" xmlns:rdf="http://www.w3.org/1999/02/22-rdf-syntax-ns#" xmlns:svg="http://www.w3.org/2000/svg" xmlns="http://www.w3.org/2000/svg" xmlns:sodipodi="http://sodipodi.sourceforge.net/DTD/sodipodi-0.dtd" xmlns:inkscape="http://www.inkscape.org/namespaces/inkscape" version="1.1" x="0px" y="0px" viewBox="0 0 100 125"><g transform="translate(0,-952.36218)"><path style="text-indent:0;text-transform:none;direction:ltr;block-progression:tb;baseline-shift:baseline;color:#000000;enable-background:accumulate;" d="m 19.000009,971.36217 c -3.8434,0 -7,3.15658 -7,7 l 0,41.00003 -4.0000002,0 a 2.0001999,2.0001999 0 0 0 -0.1875,0 2.0001999,2.0001999 0 0 0 -1.8125,2 l 0,4 c 0,4.3974 3.6026,8 8.0000002,8 l 72.000001,0 c 4.3974,0 8,-3.6026 8,-8 l 0,-4 a 2.0001999,2.0001999 0 0 0 -2,-2 l -4,0 0,-41.00003 c 0,-3.84342 -3.1566,-7 -7,-7 l -62.000001,0 z m 0,4 62.000001,0 c 1.6966,0 3,1.3034 3,3 l 0,41.00003 -68.000001,0 0,-41.00003 c 0,-1.6966 1.3034,-3 3,-3 z m 31,5 c -3.8423,0 -7,3.1577 -7,7 0,3.8423 3.1577,7 7,7 3.8422,0 7,-3.1577 7,-7 0,-3.8423 -3.1578,-7 -7,-7 z m 0,14 c -3.6308,0 -6.9432,0.79905 -9.5,2.28125 -2.5568,1.4823 -4.5,3.84308 -4.5,6.71878 l 0,8 c 0.01,0.8528 0.6192,1.6664 1.4375,1.9062 3.6738,1.0459 6.7081,1.0057 10.5313,1.0938 l 4.0624,0 c 3.8232,-0.088 6.8574,-0.048 10.5313,-1.0938 0.8184,-0.2398 1.4319,-1.0534 1.4375,-1.9062 l 0,-8 c 0,-2.8757 -1.9432,-5.23648 -4.5,-6.71878 -2.5568,-1.4822 -5.8692,-2.28125 -9.5,-2.28125 z m 0,-10 c 1.6805,0 3,1.3194 3,3 0,1.6805 -1.3195,3 -3,3 -1.6805,0 -3,-1.3195 -3,-3 0,-1.6806 1.3195,-3 3,-3 z m 0,14 c 3.0171,0 5.7188,0.7174 7.5,1.75003 1.7812,1.0326 2.5,2.1852 2.5,3.25 l 0,6.3125 c -2.4639,0.5069 -4.7496,0.6132 -8,0.6875 l -4,0 c -3.2504,-0.074 -5.5361,-0.1806 -8,-0.6875 l 0,-6.3125 c 0,-1.0648 0.7188,-2.2174 2.5,-3.25 1.7812,-1.03263 4.4828,-1.75003 7.5,-1.75003 z m -40,25.00003 80.000001,0 0,2 c 0,2.2506 -1.7494,4 -4,4 l -72.000001,0 c -2.2506,0 -4,-1.7494 -4,-4 l 0,-2 z" fill="#000000" fill-opacity="1" fill-rule="nonzero" stroke="none" marker="none" visibility="visible" display="inline" overflow="visible"/></g></svg>