<svg xmlns="http://www.w3.org/2000/svg" xmlns:xlink="http://www.w3.org/1999/xlink" version="1.1" class="" pagealignment="center-horizontally-vertically" x="0px" y="0px" width="200px" height="200px" viewBox="0 0 200 200" enable-background="new 0 0 200 200" xml:space="preserve"><defs></defs><g type="LAYER" name="workspace" id="workspace" locked="true"></g><g id="Layer 01" type="LAYER" name="Layer 01"><path transform="matrix(1 0 0 1 90.00000000000023 25.000000000000064)" width="20.000000000000057" height="88.4782608695651" stroke-width="1.5360404584043572" stroke-miterlimit="3" stroke="#FFFFFF" fill="#2D2D2D" d="M-8.526512829121202e-14,8.526512829121202e-14 L19.999999999999915,5.684341886080802e-14 L19.99999999999997,88.47826086956516 L-8.526512829121202e-14,88.4782608695651 L-8.526512829121202e-14,8.526512829121202e-14 Z "></path><path transform="matrix(-0.7940964904073063 -0.6077917109691434 0.6077917109691434 -0.7940964904073063 61.52931205149156 178.5438018223456)" width="20.003935968881706" height="211.65226143607077" stroke-width="2" stroke-miterlimit="3" stroke="#FFFFFF" fill="#2D2D2D" d="M-5.684341886080802e-14,5.471179065352771e-13 L19.591476955089433,-17.78391927617229 L20.00393596888165,177.52407920157265 L0.03487027889008232,193.86834215989848 L-5.684341886080802e-14,5.471179065352771e-13 Z "></path><path transform="matrix(0.8528789806007657 -0.5221086519579987 0.5221086519579987 0.8528789806007657 88.25041571460352 42.64666658320934)" width="20.078261763300674" height="94.64832337103513" stroke-width="2" stroke-miterlimit="3" stroke="#FFFFFF" fill="#2D2D2D" d="M-20.113132042190756,73.53151129574664 L-19.695860156927807,73.37044505947435 L-20.003935968881706,147.3758195961219 L-0.03487027889008232,160.9443966590833 L-1.3683911948942296,66.29607328804818 Z "></path><g data-svg-idi="1468831199249_1010" transform="matrix(1 0 0 1 104.56521739130437 93.04347826086956)"></g><path transform="matrix(1.1796119636642288e-16 1.0000000000000004 -1.0000000000000004 1.1796119636642288e-16 148.97671423919886 142.9550323120071)" width="20.443213561992422" height="65.21663498222577" stroke-width="1.5360404584043572" stroke-miterlimit="3" stroke="#FFFFFF" fill="#2D2D2D" d="M0.4624139972111436,22.28995711315406 L19.528595652365908,10.72701142966531 L20.553195534753797,75.94364641189108 L0.10998197276137489,60.302491875862216 L0.4624139972111436,22.28995711315406 Z "></path></g></svg></div><div class="html-layer"><div xmlns="http://www.w3.org/1999/xhtml" data-svg-idi="1468831199249_1010" style="position:absolute; display:block; left:95px; top:83px;  width:36px; height:41px;" class=""><svg version="1.1" xmlns="http://www.w3.org/2000/svg" xmlns:xlink="http://www.w3.org/1999/xlink" xml:space="preserve" width="36" height="41" viewBox="-10 -10 36 41"><path width="15.65217391304347" height="21.304347826086968" stroke-width="3.006606001131436" stroke-miterlimit="3" stroke="#2D2D2D" fill="#2D2D2D" compositeoperation="screen" d="M2.608695652173907,1.7391304347826093 L15.65217391304347,0 L15.65217391304347,21.304347826086968 L0,21.304347826086968 L2.608695652173907,1.7391304347826093 Z "></path></svg>