<svg xmlns="http://www.w3.org/2000/svg" xmlns:xlink="http://www.w3.org/1999/xlink" version="1.1" class="" pagealignment="center-horizontally-vertically" x="0px" y="0px" width="200px" height="200px" viewBox="0 0 200 200" enable-background="new 0 0 200 200" xml:space="preserve"><defs></defs><g type="LAYER" name="workspace" id="workspace" locked="true"></g><g type="LAYER" name="Square 1" id="Square 1"><path transform="matrix(0.7071067811865476 0.7071067811865475 -0.7071067811865475 0.7071067811865476 95.35533905932738 79.99999999999999)" width="49.99999999999997" height="50.000000000000014" stroke-width="0.5691116998966436" stroke-miterlimit="3" stroke="#000000" fill="#FFFFFF" d="M2.842170943040401e-14,0 L50,0 L49.99999999999994,50.000000000000014 L2.842170943040401e-14,49.99999999999999 L2.842170943040401e-14,0 Z "></path><path transform="matrix(0.7071067811865476 0.7071067811865475 -0.7071067811865475 0.7071067811865476 95.35533905932738 59.999999999999986)" width="49.99999999999997" height="50.000000000000014" stroke-width="0.5691116998966436" stroke-miterlimit="3" stroke="#000000" fill="#FFFFFF" d="M2.842170943040401e-14,0 L50,0 L49.99999999999994,50.000000000000014 L2.842170943040401e-14,49.99999999999999 L2.842170943040401e-14,0 Z "></path><path transform="matrix(0.7071067811865476 0.7071067811865475 -0.7071067811865475 0.7071067811865476 95.35533905932738 39.99999999999998)" width="49.99999999999997" height="50.000000000000014" stroke-width="0.5691116998966436" stroke-miterlimit="3" stroke="#000000" fill="#FFFFFF" d="M2.842170943040401e-14,0 L50,0 L49.99999999999994,50.000000000000014 L2.842170943040401e-14,49.99999999999999 L2.842170943040401e-14,0 Z "></path></g></svg>